<?xml version="1.0" encoding="UTF-8"?>
<svg id="Lag_1" data-name="Lag 1" xmlns="http://www.w3.org/2000/svg" viewBox="0 0 830 1080">
  <defs>
    <style>
      .cls-1 {
        fill: #fa5c18;
      }

      .cls-2 {
        fill: #fb7d46;
      }

      .cls-3 {
        fill: #e19796;
      }
    </style>
  </defs>
  <path class="cls-3" d="m368,107c-6.14-2.37-26.82-10.56-56-21-28.1-10.05-47.76-16.36-63-21-33.18-10.1-23.72-5.7-43-12-15.29-5-24.25-8.75-38-8-7.91.43-14.35,2.19-21,4-11.4,3.11-17.19,4.76-22,10-1.09,1.19-6.78,7.38-7,16-.22,8.52,5.13,10.34,4,17-1.34,7.86-9.16,7.49-11,16,0,0-.52,2.39,3,18,7.31,6.38,8.43,10.94,8,14-.39,2.72-1.85,3.12-7,11-3.72,5.69-5.59,8.6-6,12-.46,3.8.91,4.08,1,10,.1,6.49-1.53,7.07-1,11,.44,3.29,1.74,4.1,8,13,4.53,6.44,6.82,9.73,8,13,1.38,3.83,3.37,9.35,1,14-2.07,4.06-5.22,3.06-9,8-1.06,1.39-4.4,6.15-4,12,.27,3.99,2.52,7.05,7,13,4.95,6.57,6.26,6.4,10,12,3.84,5.74,5.49,10.45,6,12,1.57,4.75,2.67,8.09,2,12-.8,4.65-3.34,5.62-9,13-4.83,6.3-8.55,11.15-10,18-.58,2.75-1.9,8.94,1,15,3.18,6.66,9.67,9.43,18,13,4.6,1.97,9.4,3.31,19,6,10.16,2.84,12.71,3.11,16,6,.64.56,5.97,5.38,7,13,.44,3.27-.32,4.04-3,16-2.29,10.21-1.86,10.2-3,13-.59,1.46-2.95,6.94-10,14-5.9,5.91-10.16,7.98-16,12-11.13,7.65-18.21,15.61-23,21-7.87,8.85-6.35,9.61-19,26-9.36,12.12-10.04,11.51-15,19-4.35,6.58-9.22,15.2-13,26-3.62,10.35-5.43,15.52-4,21,1.85,7.09,6.73,9.61,6,16-.44,3.85-2.38,4.49-5,10-3.2,6.74-2.22,9.84-4,18-2.19,10.04-6.26,17.19-9,22-4.99,8.76-10.94,15.64-13,18-5.72,6.55-8.48,8.26-11,14-2.37,5.41-2.8,10.47-3,13-.49,6.33.48,11.39,1,14,1.42,7.16,2.92,7.64,3,12,.07,3.99-1.15,5.81-4,13-4.24,10.68-6.36,16.03-6,20,.32,3.56,1.39,3.43,8,16,4.62,8.79,6.94,13.19,8,17,2.33,8.33.68,11,4,17,2.69,4.86,6.29,7.69,8,9,5.27,4.05,9.78,4.93,17,7,10.24,2.93,19.99,7.37,30,11,8.12,2.94,12.25,4.49,16,8,1.74,1.64,6.31,6.03,8,13,1.47,6.07-.02,11.04-3,21-3,10.01-4.4,9.71-5,15-.19,1.68-1.19,11.84,5,21,3.26,4.82,7.17,7.21,15,12,8.84,5.41,10.64,4.6,19,10,5.77,3.73,10.07,7.45,13,10,7.23,6.3,7.43,7.81,13,12,2.91,2.19,7.58,5.7,14,8,3.02,1.08,9.56,3.02,21,2,11.03-.99,19.82-4.12,33-10,8.67-3.87,15.28-7.15,36-18,29.88-15.65,35.97-19.21,39-21,14.06-8.31,13.25-8.73,23-14,16.41-8.86,19.36-8.02,34-16,10.94-5.96,9.02-6.28,28-18,7.89-4.87,15.6-9.25,31-18,19.75-11.22,13.1-7.06,27-15,10.37-5.93,16.38-9.56,26-13,5.79-2.07,11.53-2.67,13.55-3.9.06-.04.26-.16.45-.1,1.29.42.07,8.53-1,12-2.5,8.07-10.54,11.28-21,17-12.05,6.59-3.2,3.34-33,22-18.72,11.72-19.66,11.41-29,18-6.47,4.56-9.79,7.37-26,21-21.2,17.82-31.9,26.81-37,31-20.61,16.92-30.92,25.37-36,28-2.77,1.43-14.18,7.19-27,17-5.18,3.97-9.04,7.41-11,13-2.46,7-.75,13.94,0,17,1.29,5.24,2.42,5,5,12,3.03,8.2,2.01,10,5,20,2.33,7.8,3.49,11.69,6,15,3.32,4.38,5.02,3.67,17,12,6.36,4.42,9.83,6.86,14,11,4.39,4.36,4.71,5.8,9,10,0,0,5.29,5.19,13,10,14.59,9.11,407.55,134.45,473,0,3.98-8.17,4.46-12.61,5-74,.85-96.98,1.28-145.48,0-244v-199c0-178.85.22-173.76,0-183-5.45-227.54-29.23-237.01-6-301,6.17-16.98,21.93-55.13,6-72-6.28-6.64-14.54-6.88-58-7-77.47-.21-69.69.5-80,0-42.75-2.08-69.02-9.05-73,0-1.82,4.15,2.9,7.41,6,18,4.46,15.21.6,28.55-3,41-19.51,67.45-66,92-66,92-52.95,27.96-119.98,2.03-195-27Z"/>
  <path class="cls-2" d="m634-2c-.2.91,2.28,1.69,4.76,5.41,1.19,1.78,1.86,3.44,2.24,4.59,0,0,.47,1.41,2,10,.05.7.26,4.22-2,6-2.07,1.63-4.97.83-8,0-3.53-.97-5.95-2.6-8-4-2.46-1.68-4.08-3.22-7-6-2.43-2.31-2.06-2.18-5-5-2.75-2.63-3.67-3.31-5-5-1.92-2.43-2.79-4.57-3-5-4.07-8.34-60.58-.83-90,0-9.01.26-16.01.84-30,2-2.44.2-7.93.67-15,2-7.85,1.47-12.35,3-15,4-3.97,1.5-6.77,2.58-10,5-2.87,2.15-4.76,4.36-7,7-1.48,1.74-3.01,3.85-6,8-4.91,6.8-4.82,7-6,8-3.63,3.07-5.28,1.9-10,5-3.28,2.16-5.15,4.47-8,8-3.29,4.07-5.16,7.54-7,11-2.89,5.43-4.34,8.14-5,12-.62,3.64-.34,6.55,0,10,.38,3.92.85,4.39,2,11,1.57,8.98,1.22,11,1,12-.83,3.76-2.74,6.32-4,8-3.99,5.33-10,9-10,9h0s-5.79,1.46-6,3c-.3,2.16,10.26,5.24,16,7,10.48,3.21,20.62,7.47,31,11,7.59,2.58,22.39,9.39,52,23,15.44,7.1,20.42,9.57,27,14,5.95,4.01,8.68,6.58,16,11,8.58,5.18,15.28,7.96,20,10,14.82,6.41,26.02,12.42,42,21,8.31,4.46,20.6,11.09,36,21,14.7,9.46,25.38,17.49,34,24,7.17,5.42,15.5,11.93,30,24,25.6,21.31,44.39,36.96,67,59,18.53,18.07,27.8,27.1,36,36,0,0,13.31,14.44,35,31,9.54,7.28,15.64,11.07,19,9,3.84-2.36,2.09-11.1,1-19-2.38-17.17.27-34.67,0-52-.32-20.8.54-15.9,1-57,.31-28.17.13-49.99,0-64-.32-34.7-.81-32.94-1-58-.44-58.51,2.27-66.85,1-107-1.12-35.29-3.44-35.9-1-49,1.64-8.8,4.19-16.58,0-21-4.3-4.53-12.03-1.66-27,0-13.25,1.47-26.67,0-40,0h-115c-11.17-.6-24.54-2.07-25,0Z"/>
  <path class="cls-1" d="m382.5,122c-6.48,1.39-10.79,5.77-13,8-7.38,7.47-9.05,16.46-10,22-1.01,5.89-2.14,18.06,4,34,6.15,15.95,16.65,28.05,40,47,18.63,15.12,37.34,28.03,62,43,17.91,10.87,41.77,24.53,71,39,40.23,19.92,60.35,29.88,77,34,4.62,1.14,24.41,8.09,64,22,0,0,11.05,3.88,16,10,.34.42,4,5,4,5-.77.87-2.08,2.12-4,3-5.49,2.53-11.57-.01-14-1-12.31-4.99-25.43-7.7-38-12-8.08-2.76-6.54-1.73-25-7-4.97-1.42-17.67-5.09-48-15-37.09-12.12-31.92-11.15-48-16-9.94-3-6.84-1.84-51-14-25.64-7.06-25.94-7.25-33-9-19.73-4.9-23.27-4.9-36-9-13.42-4.32-14.1-5.8-24-8-4.63-1.03-14.87-3.24-28-3-6.67.12-6.83.74-17,1-6.65.17-10.13,0-16,1-7.56,1.29-10.62,3.09-12,4-3.11,2.05-4.9,4.33-7,7-.78,1-3.13,4.07-7,12-2.79,5.72-4.52,10.16-6,14-2.77,7.18-4.16,10.77-5,15-.6,3.01-1.51,7.79-1,14,.42,5.12,1.63,8.84,3,13,1.51,4.57,3.03,7.78,6,14,4.67,9.77,5.64,10.33,7,15,.5,1.71.19,1.01,2,12,1.72,10.45,2.22,12.34,1,15-.86,1.87-2.9,3.58-7,7-5.31,4.43-6.22,4.07-9,7-1.46,1.54-4.67,4.92-6,10-.3,1.14-.44,2.13,0,12,.36,8.19.53,9,0,11-.86,3.26-2.42,5.43-5,9-2.14,2.96-4.01,4.91-7,8-5.63,5.83-7.21,6.52-9,10-.98,1.91-2.1,4.09-2,7,.16,4.6,3.31,8.85,7,11,3.02,1.76,3.93.67,15,3,3.98.84,5.74,1.37,7,3,2.18,2.81,1.27,6.81,1,8-.67,2.92-2.12,5-8,11-4.05,4.14-6.33,6.18-11,11-4.36,4.5-6.17,6.63-7,10-.3,1.22-.98,3.97,0,7,1.47,4.55,5.17,5.06,10,10,1.62,1.66,5.41,5.54,7,11,.69,2.36.31,2.79-1,17-.12,1.31-.67,7.32-1,15-.22,5.12-.13,6.1,0,7,.92,6.21,4.71,13.21,8,13,2.1-.14,2.73-3.15,6-9,0,0,3.56-6.37,11-15,6.58-7.63,13.22-12.14,16-14,4.39-2.94,12.72-7.86,29-12,14.65-3.73,26.35-4.44,40-5,30.16-1.23,53.41-1.04,57-1,22.92.22,34.34.51,62,1,28.35.5,46.55.83,68,1,42.64.34,38.95-.39,63,0,34.62.57,35.19,1.97,105,5,69.42,3.01,58.59,1.17,64,2,19.92,3.05,40.32,8.59,46,0,1.96-2.96,1.38-6.4,1-9-2.63-18.15,1.42-36.67,1-55-.84-36.74-.52-30.27-1-47-1.14-39.74-1.85-37.87-1-42,1.56-7.6,4.4-16.13,0-24-2.52-4.5-6.21-6.67-10-9-10-6.16-18.84-14.12-29-20-20.16-11.67-21.91-23.92-58-58-10.75-10.15-21.16-18.76-42-36-9.53-7.89-22.63-18.7-40-32-22.89-17.53-38.22-29.27-59-42-6.2-3.8-21.88-11.92-53-28-63.54-32.84-56.62-28.29-70-36-16.26-9.37-25.17-15.33-42-22-17-6.74-17.73-4.54-31-11-12.96-6.31-19.67-12.01-29-10Z"/>
  <path class="cls-1" d="m845.5,617c3.15,4.56,2.83,11.64,0,16-4.23,6.51-13.44,5.99-28,8-11.53,1.59-22.61,5.58-34,8-33.34,7.09-37.97,9.64-75,18-19.93,4.5-13.64,2.64-69,14-30.72,6.3-47.58,9.77-71,15-13.32,2.98-31.65,7.07-56,13-35.86,8.74-37.19,9.86-54,13-16.51,3.08-23.94,3.62-43,8-8.94,2.06-18.07,4.18-30,8-12.92,4.14-19.37,6.21-26,9-9.01,3.8-13.17,6.32-21,7-3.53.31-13.8,1.2-17-4-2.06-3.34.89-5.82,0-13-.75-6.03-3.58-10.33-6-14-4.87-7.38-7.64-6.91-12-14-2.03-3.31-4.6-7.48-5-13-.34-4.61,1.1-6.48,7-20,5.83-13.36,5.92-14.94,9-19,.83-1.1,4.78-6.2,12-11,13.26-8.82,27.6-10.02,38-11,17.04-1.61,33.93-4.77,51-6,68.8-4.94,57.68-4.31,69-5,18.97-1.15,44.18-2.66,78-4,18.41-.73,40.29-1.59,69-2,35.7-.51,36.88.33,81,0,44.92-.34,67.38-.51,72-1,32.54-3.49,53.96-10.19,61,0Z"/>
</svg>