<?xml version="1.0" encoding="UTF-8"?>
<svg id="Lag_1" data-name="Lag 1" xmlns="http://www.w3.org/2000/svg" viewBox="0 0 660 410">
  <defs>
    <style>
      .cls-1 {
        font-family: Georgia-Bold, Georgia;
        font-size: 80px;
      }

      .cls-2 {
        fill: #fa5c18;
      }

      .cls-3 {
        font-family: Georgia-BoldItalic, Georgia;
        font-size: 60px;
        font-style: italic;
      }

      .cls-4 {
        font-weight: 700;
      }
    </style>
  </defs>
  <g>
    <rect class="cls-2" x=".5" y=".5" width="659" height="409" rx="49.94" ry="49.94"/>
    <path d="m609.56,1c27.26,0,49.44,22.18,49.44,49.44v309.12c0,27.26-22.18,49.44-49.44,49.44H50.44c-27.26,0-49.44-22.18-49.44-49.44V50.44C1,23.18,23.18,1,50.44,1h559.12m0-1H50.44C22.58,0,0,22.58,0,50.44v309.12c0,27.86,22.58,50.44,50.44,50.44h559.12c27.86,0,50.44-22.58,50.44-50.44V50.44c0-27.86-22.58-50.44-50.44-50.44h0Z"/>
  </g>
  <text class="cls-4" transform="translate(135.32 180.72)"><tspan class="cls-1"><tspan x="0" y="0" xml:space="preserve"> Tema 03</tspan></tspan><tspan class="cls-3" x="0" y="96" xml:space="preserve"> Grund. UX</tspan><tspan class="cls-1" x="351.01" y="96"> </tspan></text>
</svg>